<svg width="61" height="59" viewBox="0 0 61 59" fill="none" xmlns="http://www.w3.org/2000/svg">
<path d="M35.7467 1.8667L32.8667 4.7467L37.1333 9.01337C37.72 9.68003 38.0133 10.4534 38.0133 11.3334C38.0133 12.2134 37.72 13.04 37.1333 13.6267L27.6667 23.2534L30.3333 26.1334L40.0133 16.5067C41.4267 14.9334 42.12 13.2 42.12 11.3334C42.12 9.4667 41.4267 7.7067 40.0133 6.13337L35.7467 1.8667ZM25.1333 7.25337L22.2533 10.1334L23.88 11.6267C24.4667 12.2134 24.76 13.0134 24.76 14C24.76 14.9867 24.4667 15.7867 23.88 16.3734L22.2533 17.8667L25.1333 20.7467L26.6267 19.12C28.04 17.5467 28.76 15.84 28.76 14C28.76 12.08 28.04 10.3467 26.6267 8.7467L25.1333 7.25337ZM53 11.4934C51.16 11.4934 49.4533 12.2134 47.88 13.6267L32.8667 28.6667L35.7467 31.3334L50.6267 16.5067C51.2933 15.84 52.0933 15.4934 53 15.4934C53.9067 15.4934 54.7067 15.84 55.3733 16.5067L57 18.1334L59.7467 15.2534L58.2533 13.6267C56.68 12.2134 54.92 11.4934 53 11.4934ZM15.6667 19.3334L2.33334 56.6667L39.6667 43.3334L15.6667 19.3334ZM47.6667 27.4934C45.8 27.4934 44.0933 28.2134 42.4933 29.6267L38.2533 33.8667L41.1333 36.7467L45.3733 32.5067C46.04 31.84 46.7867 31.4934 47.6667 31.4934C48.5467 31.4934 49.3467 31.84 50.0133 32.5067L54.3333 36.7467L57.1333 34L52.8667 29.6267C51.2933 28.2134 49.5333 27.4934 47.6667 27.4934Z" stroke="white" stroke-width="2"/>
</svg>
