<svg width="56" height="58" viewBox="0 0 56 58" fill="none" xmlns="http://www.w3.org/2000/svg">
<path d="M41.3333 27.9999V3.99992C41.3333 3.29267 41.0524 2.6144 40.5523 2.1143C40.0522 1.6142 39.3739 1.33325 38.6667 1.33325H4.00001C3.29277 1.33325 2.61449 1.6142 2.11439 2.1143C1.61429 2.6144 1.33334 3.29267 1.33334 3.99992V41.3333L12 30.6666H38.6667C39.3739 30.6666 40.0522 30.3856 40.5523 29.8855C41.0524 29.3854 41.3333 28.7072 41.3333 27.9999ZM52 11.9999H46.6667V35.9999H12V41.3333C12 42.0405 12.281 42.7188 12.7811 43.2189C13.2812 43.719 13.9594 43.9999 14.6667 43.9999H44L54.6667 54.6666V14.6666C54.6667 13.9593 54.3857 13.2811 53.8856 12.781C53.3855 12.2809 52.7073 11.9999 52 11.9999Z" stroke="white" stroke-width="2"/>
</svg>
