<svg width="62" height="54" viewBox="0 0 62 54" fill="none" xmlns="http://www.w3.org/2000/svg">
<path d="M23 10.3333C25.829 10.3333 28.5421 11.4571 30.5425 13.4574C32.5429 15.4578 33.6667 18.1709 33.6667 20.9999C33.6667 23.8289 32.5429 26.542 30.5425 28.5424C28.5421 30.5428 25.829 31.6666 23 31.6666C20.171 31.6666 17.4579 30.5428 15.4575 28.5424C13.4571 26.542 12.3333 23.8289 12.3333 20.9999C12.3333 18.1709 13.4571 15.4578 15.4575 13.4574C17.4579 11.4571 20.171 10.3333 23 10.3333V10.3333ZM23 36.9999C30.12 36.9999 44.3333 40.5733 44.3333 47.6666V52.9999H1.66667V47.6666C1.66667 40.5733 15.88 36.9999 23 36.9999ZM43.6933 11.2933C49.08 17.1599 49.08 25.2933 43.6933 30.6799L39.2133 26.1733C41.4533 23.0266 41.4533 18.9466 39.2133 15.7999L43.6933 11.2933ZM52.52 2.33325C63 13.1333 62.92 29.2933 52.52 39.6666L48.1733 35.3199C55.56 26.8399 55.56 14.7333 48.1733 6.67992L52.52 2.33325Z" stroke="white" stroke-width="2"/>
</svg>
