<svg width="24" height="18" viewBox="0 0 24 18" fill="none" xmlns="http://www.w3.org/2000/svg">
<path d="M22.5238 3.90342L22.5235 3.90236C22.1796 2.66441 21.3356 1.82035 20.0976 1.47648L20.0976 1.47647L20.0923 1.47502C19.4666 1.30492 18.4633 1.1917 17.1574 1.11665C15.8262 1.04014 14.1054 1 12 1H11.9811L11.9623 1.00071L10.3911 1.06C9.27923 1.06035 8.07887 1.09084 6.77041 1.16122C5.46466 1.22067 4.49708 1.31198 3.90341 1.47619L3.90236 1.47648C2.66441 1.82035 1.82035 2.66441 1.47648 3.90236L1.47647 3.90235L1.47502 3.90768C1.15983 5.06714 1 6.78292 1 9V9.03567L1.00254 9.07125L1.06003 9.87615C1.06121 10.4988 1.09285 11.2045 1.16327 12.011C1.22505 12.8319 1.32089 13.5351 1.47619 14.0966L1.47648 14.0976C1.82035 15.3356 2.66441 16.1796 3.90235 16.5235L3.90768 16.525C4.5334 16.6951 5.53673 16.8083 6.84262 16.8834C8.17379 16.9599 9.89456 17 12 17H12.0189L12.0377 16.9993L13.6089 16.94C14.7208 16.9397 15.9211 16.9092 17.2296 16.8388C18.5354 16.7793 19.5029 16.688 20.0966 16.5238L20.0976 16.5235C21.3356 16.1796 22.1796 15.3356 22.5235 14.0976L22.525 14.0923C22.8402 12.9329 23 11.2171 23 9V8.96433L22.9975 8.92875L22.94 8.12384C22.9388 7.50118 22.9072 6.79557 22.8367 5.98912C22.775 5.16815 22.6791 4.4649 22.5238 3.90342ZM11 7.73308L13.1918 9L11 10.2669V7.73308Z" stroke="#F5F4F4" stroke-width="2"/>
</svg>
